<svg xmlns="http://www.w3.org/2000/svg" xmlns:xlink="http://www.w3.org/1999/xlink" width="1080" zoomAndPan="magnify" viewBox="0 0 810 809.999993" height="1080" preserveAspectRatio="xMidYMid meet" version="1.0"><defs><g/><clipPath id="01be207f5a"><path d="M 68.582031 325.484375 L 742.082031 325.484375 L 742.082031 469.484375 L 68.582031 469.484375 Z M 68.582031 325.484375 " clip-rule="nonzero"/></clipPath></defs><rect x="-81" width="972" fill="#ffffff" y="-80.999999" height="971.999992" fill-opacity="1"/><g clip-path="url(#01be207f5a)"><path fill="#c1ff72" d="M 621.910156 351.117188 C 631.894531 350.617188 641.828125 349.855469 651.789062 349.246094 C 671.757812 348.148438 691.527344 346.320312 711.382812 344.800781 C 710.417969 349.890625 709.503906 355.1875 712.378906 359.570312 C 712.378906 359.570312 715.453125 359.171875 719.253906 358.433594 C 723.066406 357.746094 727.640625 356.921875 730.691406 356.367188 C 756.496094 363.886719 752.941406 381.570312 741.617188 395.808594 C 738.671875 398.8125 735.347656 402.207031 731.566406 405.675781 C 728.382812 405.746094 725.195312 405.8125 722.042969 405.882812 C 707.691406 406.273438 693.550781 406.964844 679.289062 408.164062 C 665.113281 409.027344 650.882812 410.179688 636.460938 411.460938 C 607.667969 413.699219 599.140625 416.230469 568.015625 416.621094 C 524.347656 415.933594 611.375 413.222656 568.015625 416.621094 C 619.503906 414.8125 535.796875 420.316406 588.179688 417.457031 C 601.292969 416.800781 593.375 416.144531 606.402344 415.496094 C 619.460938 415.019531 632.460938 414.546875 645.386719 414.078125 C 658.359375 413.609375 671.203125 413.558594 684.074219 413.351562 C 696.984375 413.050781 709.742188 413.144531 722.554688 413.265625 C 712.902344 420.519531 701.203125 426.660156 687.019531 428.714844 C 653.195312 430.929688 619.839844 433.109375 586.769531 435.273438 C 586.617188 432.847656 560.917969 437.265625 538.191406 438.722656 C 515.480469 440.015625 493.105469 435.554688 470.578125 436.078125 C 425.503906 437.269531 335.777344 451.222656 335.15625 452.828125 C 334.925781 452.847656 334.707031 452.867188 334.496094 452.886719 C 334.707031 452.867188 334.925781 452.847656 335.15625 452.828125 C 334.59375 454.234375 335.019531 455.269531 340.804688 454.863281 C 335.019531 455.269531 334.59375 454.238281 335.15625 452.828125 C 426.542969 444.03125 491.117188 439.855469 583.007812 435.550781 C 511.742188 440.3125 463.089844 445.921875 392.992188 451.734375 C 322.90625 457.511719 252.425781 463.363281 179.730469 467.816406 C 173.542969 468.195312 161.140625 468.949219 154.941406 469.328125 C 129.886719 463.582031 104.988281 462.621094 80.253906 464.035156 C 86.011719 451.628906 60.394531 428.964844 110.101562 430.925781 C 110.015625 428.519531 109.84375 423.699219 109.757812 421.292969 C 84.734375 416.710938 67.511719 406.207031 62.019531 395.390625 C 59.496094 390.015625 59.8125 384.421875 64.34375 379.445312 C 69.054688 374.433594 76.917969 370.070312 89.234375 366.945312 C 144.515625 354.121094 219.019531 359.269531 286.746094 349.878906 C 336.0625 344.171875 385.3125 338.234375 434.839844 339.222656 C 503.019531 341.191406 555.800781 332.507812 623.789062 334.667969 C 636.109375 334.46875 652.8125 331.207031 668.035156 328.792969 C 683.1875 326.214844 696.707031 324.140625 703.117188 326.910156 C 712.128906 329.113281 712.996094 334.15625 712.207031 340.03125 C 692.140625 342.445312 672.1875 345.203125 652.058594 347.113281 C 642.015625 348.128906 632.023438 349.28125 621.992188 350.144531 C 611.960938 350.972656 601.953125 351.796875 591.976562 352.621094 " fill-opacity="1" fill-rule="nonzero"/></g><g fill="#222222" fill-opacity="1"><g transform="translate(138.282887, 438.197)"><g><path d="M 28.859375 12.015625 C 23.984375 12.015625 19.585938 10.65625 15.671875 7.9375 C 11.765625 5.21875 8.679688 1.257812 6.421875 -3.9375 C 4.160156 -9.132812 3.03125 -15.234375 3.03125 -22.234375 C 3.03125 -33.742188 5.929688 -45.53125 11.734375 -57.59375 C 17.535156 -69.65625 24.878906 -79.617188 33.765625 -87.484375 C 42.648438 -95.359375 51.328125 -99.296875 59.796875 -99.296875 C 64.679688 -99.296875 68.296875 -97.820312 70.640625 -94.875 C 72.992188 -91.9375 74.171875 -88.207031 74.171875 -83.6875 C 74.171875 -80.46875 73.613281 -77.289062 72.5 -74.15625 C 71.394531 -71.03125 69.898438 -68.476562 68.015625 -66.5 C 66.128906 -64.519531 64.128906 -63.53125 62.015625 -63.53125 C 60.171875 -63.53125 58.742188 -64.585938 57.734375 -66.703125 C 59.109375 -67.628906 60.644531 -69.332031 62.34375 -71.8125 C 64.050781 -74.300781 65.503906 -77.019531 66.703125 -79.96875 C 67.898438 -82.914062 68.5 -85.539062 68.5 -87.84375 C 68.5 -90.050781 67.832031 -91.820312 66.5 -93.15625 C 65.164062 -94.488281 63.070312 -95.15625 60.21875 -95.15625 C 53.863281 -95.15625 47.046875 -91.007812 39.765625 -82.71875 C 32.492188 -74.4375 26.394531 -64.3125 21.46875 -52.34375 C 16.550781 -40.375 14.09375 -29.414062 14.09375 -19.46875 C 14.09375 -11.28125 15.816406 -4.769531 19.265625 0.0625 C 22.722656 4.894531 27.164062 7.3125 32.59375 7.3125 C 37.195312 7.3125 41.523438 5.148438 45.578125 0.828125 C 49.628906 -3.492188 52.96875 -8.925781 55.59375 -15.46875 C 58.21875 -22.007812 59.757812 -28.363281 60.21875 -34.53125 C 54.875 -35.726562 50.128906 -36.328125 45.984375 -36.328125 L 37.5625 -36.1875 C 38.664062 -40.96875 41.796875 -43.359375 46.953125 -43.359375 C 49.160156 -43.359375 51.394531 -43.035156 53.65625 -42.390625 C 55.914062 -41.753906 59.023438 -40.742188 62.984375 -39.359375 C 65.285156 -38.347656 67.722656 -37.519531 70.296875 -36.875 L 69.328125 -32.453125 C 66.109375 -23.984375 63.898438 -17.191406 62.703125 -12.078125 C 61.503906 -6.972656 60.90625 -2.53125 60.90625 1.25 C 60.90625 2.71875 61 4.832031 61.1875 7.59375 C 61.363281 9.4375 61.453125 10.910156 61.453125 12.015625 C 56.484375 10.078125 54 6.765625 54 2.078125 C 54 0.046875 54.320312 -2.070312 54.96875 -4.28125 C 47.144531 6.582031 38.441406 12.015625 28.859375 12.015625 Z M 28.859375 12.015625 "/></g></g></g><g fill="#222222" fill-opacity="1"><g transform="translate(214.79296, 438.197)"><g><path d="M 23.890625 3.59375 C 20.765625 3.59375 18.300781 2.765625 16.5 1.109375 C 14.707031 -0.546875 13.8125 -2.710938 13.8125 -5.390625 C 13.8125 -8.515625 15.144531 -13.023438 17.8125 -18.921875 C 19.007812 -21.960938 19.90625 -24.378906 20.5 -26.171875 C 21.101562 -27.960938 21.40625 -29.644531 21.40625 -31.21875 C 21.40625 -33.519531 20.875 -35.335938 19.8125 -36.671875 C 18.757812 -38.003906 17.585938 -39.109375 16.296875 -39.984375 C 15.003906 -40.859375 14.128906 -41.429688 13.671875 -41.703125 C 11.648438 -36.546875 9.488281 -31.503906 7.1875 -26.578125 C 4.882812 -21.660156 2.945312 -17.863281 1.375 -15.1875 L 0.140625 -17.546875 C 4.554688 -26.109375 8.285156 -34.851562 11.328125 -43.78125 C 10.398438 -44.695312 9.9375 -45.800781 9.9375 -47.09375 C 9.9375 -48.75 10.28125 -50.3125 10.96875 -51.78125 C 11.664062 -53.257812 12.5 -54.410156 13.46875 -55.234375 C 14.4375 -56.066406 15.195312 -56.484375 15.75 -56.484375 C 17.03125 -56.484375 17.671875 -55.378906 17.671875 -53.171875 C 17.671875 -52.804688 17.441406 -51.976562 16.984375 -50.6875 C 16.523438 -49.394531 16.25 -48.519531 16.15625 -48.0625 C 16.15625 -47.144531 16.546875 -46.289062 17.328125 -45.5 C 18.109375 -44.71875 19.375 -43.726562 21.125 -42.53125 C 23.976562 -40.507812 26.210938 -38.507812 27.828125 -36.53125 C 29.441406 -34.550781 30.25 -31.992188 30.25 -28.859375 C 30.25 -26.835938 29.925781 -24.835938 29.28125 -22.859375 C 28.632812 -20.878906 27.664062 -18.273438 26.375 -15.046875 C 24.351562 -10.628906 23.34375 -7.457031 23.34375 -5.53125 C 23.34375 -2.757812 24.722656 -1.375 27.484375 -1.375 C 30.242188 -1.375 33.210938 -2.476562 36.390625 -4.6875 C 39.566406 -6.90625 42.488281 -9.644531 45.15625 -12.90625 C 47.832031 -16.175781 49.769531 -19.191406 50.96875 -21.953125 L 52.75 -20.578125 C 49.894531 -14.222656 45.75 -8.601562 40.3125 -3.71875 C 34.882812 1.15625 29.410156 3.59375 23.890625 3.59375 Z M 23.890625 3.59375 "/></g></g></g><g fill="#222222" fill-opacity="1"><g transform="translate(262.85344, 438.197)"><g><path d="M 14.921875 6.078125 C 9.484375 6.078125 5.3125 4.578125 2.40625 1.578125 C -0.488281 -1.410156 -1.9375 -5.25 -1.9375 -9.9375 C -1.9375 -15.375 -0.140625 -21.222656 3.453125 -27.484375 C 7.046875 -33.742188 11.582031 -39.015625 17.0625 -43.296875 C 22.539062 -47.578125 27.898438 -49.71875 33.140625 -49.71875 C 38.847656 -49.71875 41.703125 -46.910156 41.703125 -41.296875 C 41.703125 -36.785156 40 -32.570312 36.59375 -28.65625 C 33.1875 -24.738281 28.8125 -21.535156 23.46875 -19.046875 C 18.132812 -16.566406 12.796875 -15.050781 7.453125 -14.5 C 7.085938 -12.9375 6.90625 -11.28125 6.90625 -9.53125 C 6.90625 -6.21875 7.734375 -3.453125 9.390625 -1.234375 C 11.046875 0.972656 13.851562 2.078125 17.8125 2.078125 C 23.425781 2.078125 29.085938 -0.269531 34.796875 -4.96875 C 40.503906 -9.664062 45.15625 -15.46875 48.75 -22.375 L 50.40625 -21.125 C 46.726562 -12.9375 41.617188 -6.351562 35.078125 -1.375 C 28.546875 3.59375 21.828125 6.078125 14.921875 6.078125 Z M 8.15625 -17.125 C 12.019531 -18.507812 16.066406 -20.441406 20.296875 -22.921875 C 24.535156 -25.410156 28.148438 -28.332031 31.140625 -31.6875 C 34.128906 -35.050781 35.625 -38.578125 35.625 -42.265625 C 35.625 -43.367188 35.414062 -44.171875 35 -44.671875 C 34.59375 -45.179688 33.835938 -45.4375 32.734375 -45.4375 C 29.878906 -45.4375 26.769531 -44.007812 23.40625 -41.15625 C 20.050781 -38.300781 16.96875 -34.660156 14.15625 -30.234375 C 11.34375 -25.816406 9.34375 -21.445312 8.15625 -17.125 Z M 8.15625 -17.125 "/></g></g></g><g fill="#222222" fill-opacity="1"><g transform="translate(308.842348, 438.197)"><g><path d="M 14.921875 6.078125 C 9.484375 6.078125 5.3125 4.578125 2.40625 1.578125 C -0.488281 -1.410156 -1.9375 -5.25 -1.9375 -9.9375 C -1.9375 -15.375 -0.140625 -21.222656 3.453125 -27.484375 C 7.046875 -33.742188 11.582031 -39.015625 17.0625 -43.296875 C 22.539062 -47.578125 27.898438 -49.71875 33.140625 -49.71875 C 38.847656 -49.71875 41.703125 -46.910156 41.703125 -41.296875 C 41.703125 -36.785156 40 -32.570312 36.59375 -28.65625 C 33.1875 -24.738281 28.8125 -21.535156 23.46875 -19.046875 C 18.132812 -16.566406 12.796875 -15.050781 7.453125 -14.5 C 7.085938 -12.9375 6.90625 -11.28125 6.90625 -9.53125 C 6.90625 -6.21875 7.734375 -3.453125 9.390625 -1.234375 C 11.046875 0.972656 13.851562 2.078125 17.8125 2.078125 C 23.425781 2.078125 29.085938 -0.269531 34.796875 -4.96875 C 40.503906 -9.664062 45.15625 -15.46875 48.75 -22.375 L 50.40625 -21.125 C 46.726562 -12.9375 41.617188 -6.351562 35.078125 -1.375 C 28.546875 3.59375 21.828125 6.078125 14.921875 6.078125 Z M 8.15625 -17.125 C 12.019531 -18.507812 16.066406 -20.441406 20.296875 -22.921875 C 24.535156 -25.410156 28.148438 -28.332031 31.140625 -31.6875 C 34.128906 -35.050781 35.625 -38.578125 35.625 -42.265625 C 35.625 -43.367188 35.414062 -44.171875 35 -44.671875 C 34.59375 -45.179688 33.835938 -45.4375 32.734375 -45.4375 C 29.878906 -45.4375 26.769531 -44.007812 23.40625 -41.15625 C 20.050781 -38.300781 16.96875 -34.660156 14.15625 -30.234375 C 11.34375 -25.816406 9.34375 -21.445312 8.15625 -17.125 Z M 8.15625 -17.125 "/></g></g></g><g fill="#222222" fill-opacity="1"><g transform="translate(354.831255, 438.197)"><g><path d="M 44.609375 2.765625 C 41.472656 2.765625 39.078125 1.957031 37.421875 0.34375 C 35.765625 -1.269531 34.9375 -3.410156 34.9375 -6.078125 C 34.9375 -7.273438 35.144531 -8.675781 35.5625 -10.28125 C 35.976562 -11.894531 36.414062 -13.484375 36.875 -15.046875 C 37.425781 -16.710938 37.910156 -18.460938 38.328125 -20.296875 C 38.742188 -22.140625 38.953125 -23.800781 38.953125 -25.28125 C 38.953125 -29.789062 37.109375 -32.046875 33.421875 -32.046875 C 29.921875 -32.046875 26.257812 -30.203125 22.4375 -26.515625 C 18.625 -22.835938 15.21875 -18.738281 12.21875 -14.21875 C 9.226562 -9.707031 5.847656 -4.273438 2.078125 2.078125 C 0.503906 2.078125 -0.921875 1.820312 -2.203125 1.3125 C -3.492188 0.800781 -4.507812 0.0390625 -5.25 -0.96875 C -5.25 -1.425781 -4.648438 -3.082031 -3.453125 -5.9375 C -1.148438 -11.832031 0.734375 -17.195312 2.203125 -22.03125 C 3.679688 -26.863281 4.46875 -31.164062 4.5625 -34.9375 C 5.207031 -35.675781 6.125 -36.34375 7.3125 -36.9375 C 8.507812 -37.539062 9.707031 -37.84375 10.90625 -37.84375 C 13.394531 -37.84375 14.640625 -36.644531 14.640625 -34.25 C 14.640625 -32.863281 14.222656 -30.445312 13.390625 -27 C 12.566406 -23.550781 11.507812 -19.890625 10.21875 -16.015625 C 14.632812 -22.828125 19.328125 -28.582031 24.296875 -33.28125 C 29.273438 -37.976562 34.160156 -40.328125 38.953125 -40.328125 C 42.359375 -40.328125 44.910156 -39.109375 46.609375 -36.671875 C 48.316406 -34.234375 49.171875 -31.304688 49.171875 -27.890625 C 49.171875 -25.867188 48.914062 -23.9375 48.40625 -22.09375 C 47.894531 -20.25 47.132812 -18.132812 46.125 -15.75 C 45.300781 -13.71875 44.65625 -11.960938 44.1875 -10.484375 C 43.726562 -9.015625 43.5 -7.546875 43.5 -6.078125 C 43.5 -2.578125 44.878906 -0.828125 47.640625 -0.828125 C 50.773438 -0.828125 54.019531 -2.898438 57.375 -7.046875 C 60.738281 -11.191406 63.941406 -16.300781 66.984375 -22.375 L 68.5 -20.578125 C 61.875 -5.015625 53.910156 2.765625 44.609375 2.765625 Z M 44.609375 2.765625 "/></g></g></g><g fill="#222222" fill-opacity="1"><g transform="translate(419.188116, 438.197)"><g><path d="M 17.953125 12.015625 C 12.796875 12.015625 8.953125 11.140625 6.421875 9.390625 C 3.890625 7.640625 2.625 4.832031 2.625 0.96875 C 2.625 0.6875 2.851562 0.546875 3.3125 0.546875 C 3.675781 0.546875 4.78125 0.773438 6.625 1.234375 C 8.46875 1.703125 11.691406 1.9375 16.296875 1.9375 C 26.515625 1.9375 35.835938 0.394531 44.265625 -2.6875 C 52.691406 -5.769531 59.296875 -9.84375 64.078125 -14.90625 C 68.867188 -19.976562 71.265625 -25.273438 71.265625 -30.796875 C 71.265625 -37.515625 67.945312 -42.09375 61.3125 -44.53125 C 54.6875 -46.976562 46.398438 -48.203125 36.453125 -48.203125 L 26.109375 -48.0625 C 24.722656 -43.363281 22.738281 -36.320312 20.15625 -26.9375 C 18.226562 -19.75 16.066406 -11.96875 13.671875 -3.59375 C 11.367188 -3.59375 9.4375 -4.234375 7.875 -5.515625 C 6.3125 -6.804688 5.53125 -8.375 5.53125 -10.21875 C 5.53125 -11.414062 5.804688 -12.890625 6.359375 -14.640625 C 6.910156 -16.390625 7.273438 -17.539062 7.453125 -18.09375 C 10.304688 -27.664062 14.609375 -40.4375 20.359375 -56.40625 C 26.117188 -72.382812 31.578125 -85.441406 36.734375 -95.578125 C 31.304688 -94.648438 25.96875 -92.625 20.71875 -89.5 C 19.0625 -88.570312 18.046875 -88.109375 17.671875 -88.109375 C 16.941406 -88.109375 16.023438 -88.566406 14.921875 -89.484375 C 13.816406 -90.410156 13.265625 -91.195312 13.265625 -91.84375 C 19.335938 -94.332031 24.695312 -96.21875 29.34375 -97.5 C 34 -98.789062 39.546875 -99.4375 45.984375 -99.4375 C 54.460938 -99.4375 61.898438 -97.894531 68.296875 -94.8125 C 74.691406 -91.726562 77.890625 -85.953125 77.890625 -77.484375 C 77.890625 -69.285156 74.828125 -63.113281 68.703125 -58.96875 C 62.585938 -54.820312 55.109375 -52.015625 46.265625 -50.546875 C 67.253906 -49.253906 77.75 -41.84375 77.75 -28.3125 C 77.75 -20.019531 74.390625 -12.8125 67.671875 -6.6875 C 60.953125 -0.570312 52.875 4.070312 43.4375 7.25 C 34 10.425781 25.503906 12.015625 17.953125 12.015625 Z M 26.9375 -51.234375 C 38.8125 -51.609375 48.890625 -53.957031 57.171875 -58.28125 C 65.460938 -62.601562 69.609375 -69.367188 69.609375 -78.578125 C 69.609375 -90.546875 61.828125 -96.53125 46.265625 -96.53125 C 45.066406 -96.53125 44.191406 -96.488281 43.640625 -96.40625 C 38.210938 -85.8125 32.644531 -70.753906 26.9375 -51.234375 Z M 26.9375 -51.234375 "/></g></g></g><g fill="#222222" fill-opacity="1"><g transform="translate(503.15586, 438.197)"><g><path d="M 9.53125 4.421875 C 5.75 4.421875 2.984375 3.269531 1.234375 0.96875 C -0.503906 -1.332031 -1.375 -4.375 -1.375 -8.15625 C -1.375 -11.925781 -0.59375 -15.878906 0.96875 -20.015625 C 2.53125 -24.160156 4.550781 -27.613281 7.03125 -30.375 C 9.519531 -33.144531 12.007812 -34.53125 14.5 -34.53125 C 15.332031 -34.53125 16.300781 -34.300781 17.40625 -33.84375 C 16.300781 -32.914062 14.960938 -30.882812 13.390625 -27.75 C 11.828125 -24.625 10.46875 -21.289062 9.3125 -17.75 C 8.164062 -14.207031 7.59375 -11.328125 7.59375 -9.109375 C 7.59375 -3.867188 9.25 -1.25 12.5625 -1.25 C 14.5 -1.25 16.800781 -2.257812 19.46875 -4.28125 C 22.144531 -6.300781 24.769531 -8.972656 27.34375 -12.296875 C 24.769531 -14.410156 22.769531 -17.171875 21.34375 -20.578125 C 19.914062 -23.984375 19.203125 -27.53125 19.203125 -31.21875 C 19.203125 -36 20.421875 -40.09375 22.859375 -43.5 C 25.296875 -46.90625 28.585938 -48.609375 32.734375 -48.609375 C 36.234375 -48.609375 38.695312 -47.664062 40.125 -45.78125 C 41.550781 -43.894531 42.265625 -41.296875 42.265625 -37.984375 C 42.265625 -34.484375 41.410156 -30.546875 39.703125 -26.171875 C 38.003906 -21.796875 35.773438 -17.535156 33.015625 -13.390625 C 34.671875 -12.472656 36.414062 -12.015625 38.25 -12.015625 C 40.925781 -12.015625 43.691406 -12.816406 46.546875 -14.421875 C 49.398438 -16.035156 51.5625 -18.546875 53.03125 -21.953125 L 54.6875 -20.578125 C 52.9375 -16.523438 50.453125 -13.53125 47.234375 -11.59375 C 44.015625 -9.664062 40.703125 -8.703125 37.296875 -8.703125 C 34.804688 -8.703125 32.59375 -9.160156 30.65625 -10.078125 C 27.34375 -5.753906 23.820312 -2.257812 20.09375 0.40625 C 16.363281 3.082031 12.84375 4.421875 9.53125 4.421875 Z M 29.828125 -15.875 C 32.222656 -19.46875 34.15625 -23.128906 35.625 -26.859375 C 37.101562 -30.585938 37.84375 -34.019531 37.84375 -37.15625 C 37.84375 -39.726562 37.453125 -41.660156 36.671875 -42.953125 C 35.890625 -44.242188 34.898438 -44.890625 33.703125 -44.890625 C 32.410156 -44.890625 31.097656 -44.265625 29.765625 -43.015625 C 28.429688 -41.773438 27.328125 -40.070312 26.453125 -37.90625 C 25.578125 -35.75 25.140625 -33.378906 25.140625 -30.796875 C 25.140625 -27.941406 25.53125 -25.203125 26.3125 -22.578125 C 27.09375 -19.953125 28.265625 -17.71875 29.828125 -15.875 Z M 29.828125 -15.875 "/></g></g></g><g fill="#222222" fill-opacity="1"><g transform="translate(553.564123, 438.197)"><g><path d="M 9.53125 4.421875 C 5.75 4.421875 2.984375 3.269531 1.234375 0.96875 C -0.503906 -1.332031 -1.375 -4.375 -1.375 -8.15625 C -1.375 -11.925781 -0.59375 -15.878906 0.96875 -20.015625 C 2.53125 -24.160156 4.550781 -27.613281 7.03125 -30.375 C 9.519531 -33.144531 12.007812 -34.53125 14.5 -34.53125 C 15.332031 -34.53125 16.300781 -34.300781 17.40625 -33.84375 C 16.300781 -32.914062 14.960938 -30.882812 13.390625 -27.75 C 11.828125 -24.625 10.46875 -21.289062 9.3125 -17.75 C 8.164062 -14.207031 7.59375 -11.328125 7.59375 -9.109375 C 7.59375 -3.867188 9.25 -1.25 12.5625 -1.25 C 14.5 -1.25 16.800781 -2.257812 19.46875 -4.28125 C 22.144531 -6.300781 24.769531 -8.972656 27.34375 -12.296875 C 24.769531 -14.410156 22.769531 -17.171875 21.34375 -20.578125 C 19.914062 -23.984375 19.203125 -27.53125 19.203125 -31.21875 C 19.203125 -36 20.421875 -40.09375 22.859375 -43.5 C 25.296875 -46.90625 28.585938 -48.609375 32.734375 -48.609375 C 36.234375 -48.609375 38.695312 -47.664062 40.125 -45.78125 C 41.550781 -43.894531 42.265625 -41.296875 42.265625 -37.984375 C 42.265625 -34.484375 41.410156 -30.546875 39.703125 -26.171875 C 38.003906 -21.796875 35.773438 -17.535156 33.015625 -13.390625 C 34.671875 -12.472656 36.414062 -12.015625 38.25 -12.015625 C 40.925781 -12.015625 43.691406 -12.816406 46.546875 -14.421875 C 49.398438 -16.035156 51.5625 -18.546875 53.03125 -21.953125 L 54.6875 -20.578125 C 52.9375 -16.523438 50.453125 -13.53125 47.234375 -11.59375 C 44.015625 -9.664062 40.703125 -8.703125 37.296875 -8.703125 C 34.804688 -8.703125 32.59375 -9.160156 30.65625 -10.078125 C 27.34375 -5.753906 23.820312 -2.257812 20.09375 0.40625 C 16.363281 3.082031 12.84375 4.421875 9.53125 4.421875 Z M 29.828125 -15.875 C 32.222656 -19.46875 34.15625 -23.128906 35.625 -26.859375 C 37.101562 -30.585938 37.84375 -34.019531 37.84375 -37.15625 C 37.84375 -39.726562 37.453125 -41.660156 36.671875 -42.953125 C 35.890625 -44.242188 34.898438 -44.890625 33.703125 -44.890625 C 32.410156 -44.890625 31.097656 -44.265625 29.765625 -43.015625 C 28.429688 -41.773438 27.328125 -40.070312 26.453125 -37.90625 C 25.578125 -35.75 25.140625 -33.378906 25.140625 -30.796875 C 25.140625 -27.941406 25.53125 -25.203125 26.3125 -22.578125 C 27.09375 -19.953125 28.265625 -17.71875 29.828125 -15.875 Z M 29.828125 -15.875 "/></g></g></g><g fill="#222222" fill-opacity="1"><g transform="translate(603.972386, 438.197)"><g><path d="M 41.015625 5.25 C 37.796875 5.25 35.125 3.867188 33 1.109375 C 30.882812 -1.648438 29.34375 -4.960938 28.375 -8.828125 C 27.414062 -12.703125 26.9375 -16.296875 26.9375 -19.609375 C 28.6875 -19.609375 30.960938 -20.113281 33.765625 -21.125 C 36.578125 -22.144531 39.085938 -23.644531 41.296875 -25.625 C 43.503906 -27.601562 44.609375 -30.019531 44.609375 -32.875 C 44.609375 -34.707031 43.914062 -36.195312 42.53125 -37.34375 C 41.15625 -38.5 39.546875 -39.078125 37.703125 -39.078125 C 31.804688 -39.078125 26.765625 -35.300781 22.578125 -27.75 C 18.390625 -20.207031 14.726562 -11.691406 11.59375 -2.203125 L 10.078125 1.796875 C 9.617188 2.617188 8.953125 3.238281 8.078125 3.65625 C 7.203125 4.070312 6.304688 4.28125 5.390625 4.28125 C 3.265625 4.28125 1.925781 3.175781 1.375 0.96875 C 0.820312 -1.238281 0.546875 -4.460938 0.546875 -8.703125 C 0.546875 -17.722656 3.285156 -29.367188 8.765625 -43.640625 C 14.242188 -57.910156 20.410156 -70.640625 27.265625 -81.828125 C 34.128906 -93.015625 39.175781 -98.609375 42.40625 -98.609375 C 43.59375 -98.609375 44.601562 -97.734375 45.4375 -95.984375 C 46.269531 -94.234375 46.6875 -92.117188 46.6875 -89.640625 C 46.6875 -85.398438 45.460938 -80.5625 43.015625 -75.125 C 40.578125 -69.695312 37.191406 -64.453125 32.859375 -59.390625 C 28.535156 -54.328125 23.75 -50.226562 18.5 -47.09375 C 15.5625 -39.914062 13.304688 -32.78125 11.734375 -25.6875 C 10.171875 -18.59375 9.390625 -12.5625 9.390625 -7.59375 C 13.441406 -17.8125 18.09375 -26.8125 23.34375 -34.59375 C 28.59375 -42.375 34.253906 -46.265625 40.328125 -46.265625 C 43.734375 -46.265625 46.632812 -45.066406 49.03125 -42.671875 C 51.425781 -40.273438 52.625 -37.375 52.625 -33.96875 C 52.625 -30.382812 51.445312 -27.367188 49.09375 -24.921875 C 46.75 -22.484375 44.035156 -20.6875 40.953125 -19.53125 C 37.867188 -18.382812 35.222656 -17.8125 33.015625 -17.8125 C 33.472656 -14.40625 34.597656 -10.582031 36.390625 -6.34375 C 38.179688 -2.113281 40.644531 0 43.78125 0 C 50.6875 0 57.5 -7.503906 64.21875 -22.515625 L 65.609375 -21.125 C 64.316406 -16.613281 62.332031 -12.332031 59.65625 -8.28125 C 56.988281 -4.226562 54 -0.960938 50.6875 1.515625 C 47.375 4.003906 44.148438 5.25 41.015625 5.25 Z M 20.859375 -52.625 C 24.910156 -55.84375 28.546875 -59.613281 31.765625 -63.9375 C 34.984375 -68.269531 37.488281 -72.460938 39.28125 -76.515625 C 41.082031 -80.566406 41.984375 -83.789062 41.984375 -86.1875 C 41.984375 -87.007812 41.847656 -87.421875 41.578125 -87.421875 C 40.191406 -87.421875 37.378906 -83.898438 33.140625 -76.859375 C 28.910156 -69.816406 24.816406 -61.738281 20.859375 -52.625 Z M 20.859375 -52.625 "/></g></g></g><g fill="#222222" fill-opacity="1"><g transform="translate(665.567143, 438.197)"><g><path d="M 14.5 7.046875 C 8.519531 7.046875 4.144531 5.25 1.375 1.65625 C -1.382812 -1.9375 -2.765625 -6.171875 -2.765625 -11.046875 C -2.765625 -14.734375 -2.117188 -17.332031 -0.828125 -18.84375 C 0.460938 -20.363281 1.863281 -21.445312 3.375 -22.09375 C 4.894531 -22.738281 5.796875 -23.203125 6.078125 -23.484375 C 11.972656 -29.921875 16.53125 -36.59375 19.75 -43.5 L 19.75 -45.15625 C 19.75 -48.289062 20.273438 -50.640625 21.328125 -52.203125 C 22.390625 -53.765625 23.660156 -54.546875 25.140625 -54.546875 C 25.867188 -54.546875 26.414062 -54.382812 26.78125 -54.0625 C 27.15625 -53.75 27.34375 -53.3125 27.34375 -52.75 C 27.34375 -52.382812 27.203125 -51.625 26.921875 -50.46875 C 26.648438 -49.320312 26.515625 -48.0625 26.515625 -46.6875 C 26.515625 -44.84375 26.765625 -42.882812 27.265625 -40.8125 C 27.773438 -38.738281 28.582031 -36.046875 29.6875 -32.734375 C 30.976562 -28.773438 31.96875 -25.320312 32.65625 -22.375 C 33.351562 -19.425781 33.703125 -16.429688 33.703125 -13.390625 C 33.703125 -11.003906 33.425781 -8.75 32.875 -6.625 C 36.1875 -7.175781 39.269531 -8.671875 42.125 -11.109375 C 44.976562 -13.554688 47.691406 -17.265625 50.265625 -22.234375 L 51.515625 -20.859375 C 49.859375 -16.066406 47.328125 -12.289062 43.921875 -9.53125 C 40.515625 -6.769531 36.597656 -5.066406 32.171875 -4.421875 C 30.796875 -0.640625 28.539062 2.210938 25.40625 4.140625 C 22.28125 6.078125 18.644531 7.046875 14.5 7.046875 Z M 24.171875 -6.765625 C 24.535156 -9.160156 24.71875 -11.328125 24.71875 -13.265625 C 24.71875 -16.023438 24.488281 -18.785156 24.03125 -21.546875 C 23.570312 -24.304688 22.878906 -27.484375 21.953125 -31.078125 C 21.128906 -34.753906 20.625 -37.144531 20.4375 -38.25 C 15.738281 -30.519531 11.273438 -24.535156 7.046875 -20.296875 C 8.515625 -17.078125 10.742188 -14.222656 13.734375 -11.734375 C 16.734375 -9.253906 20.210938 -7.597656 24.171875 -6.765625 Z M 14.78125 2.203125 C 19.007812 2.203125 21.910156 -0.0507812 23.484375 -4.5625 C 19.796875 -5.289062 16.429688 -6.738281 13.390625 -8.90625 C 10.359375 -11.070312 8.054688 -13.441406 6.484375 -16.015625 C 4.460938 -15.921875 3.453125 -14.3125 3.453125 -11.1875 C 3.453125 -7.6875 4.488281 -4.578125 6.5625 -1.859375 C 8.632812 0.847656 11.375 2.203125 14.78125 2.203125 Z M 14.78125 2.203125 "/></g></g></g></svg>